<svg viewBox="0 0 126.03 40.05" xmlns="http://www.w3.org/2000/svg"><path d="m109 11.88a2.13 2.13 0 0 1 -.75 1.72 2.73 2.73 0 0 1 -3.49 0 2.12 2.12 0 0 1 -.75-1.72 2.15 2.15 0 0 1 .75-1.73 2.76 2.76 0 0 1 3.49 0 2.15 2.15 0 0 1 .75 1.73" fill="#fff"/><path d="m104.38 16.22h4.18v14.09h-4.18z" fill="#fff"/><path d="m62.38 19.49c-.38-.09-.84-.19-1.34-.29a8.55 8.55 0 0 0 -1.67-.14 8.88 8.88 0 0 0 -1 .06 5.28 5.28 0 0 0 -.85.16v11h-4.23v-13.64a25.39 25.39 0 0 1 2.71-.72 16.31 16.31 0 0 1 3.48-.34h.84s.65.06 1 .1l1 .17a4.29 4.29 0 0 1 .83.24l-.72 3.37" fill="#fff"/><path d="m126 23.06a9 9 0 0 1 -.52 3.11 6.81 6.81 0 0 1 -1.5 2.42 6.69 6.69 0 0 1 -2.33 1.55 8.2 8.2 0 0 1 -3.06.55 8.11 8.11 0 0 1 -3-.55 6.59 6.59 0 0 1 -2.33-1.55 7.19 7.19 0 0 1 -1.53-2.42 8.72 8.72 0 0 1 -.54-3.11 8.14 8.14 0 0 1 .56-3.1 6.86 6.86 0 0 1 3.89-3.96 7.75 7.75 0 0 1 3-.55 7.84 7.84 0 0 1 3 .55 6.71 6.71 0 0 1 3.83 4 8.35 8.35 0 0 1 .55 3.1m-4.37 0a5 5 0 0 0 -.78-3 2.63 2.63 0 0 0 -2.25-1.1 2.66 2.66 0 0 0 -2.27 1.09 4.91 4.91 0 0 0 -.8 3 5 5 0 0 0 .8 3 2.63 2.63 0 0 0 2.27 1.11 2.59 2.59 0 0 0 2.26-1.11 5.12 5.12 0 0 0 .77-3.03z" fill="#fff"/><path d="m64 23.2a8.42 8.42 0 0 1 .62-3.36 6.85 6.85 0 0 1 3.89-3.84 7.69 7.69 0 0 1 2.68-.49 6.8 6.8 0 0 1 5.08 1.88 7.51 7.51 0 0 1 1.87 5.53v.78s0 .54-.07.76h-9.7a2.71 2.71 0 0 0 1.24 2 5.11 5.11 0 0 0 2.93.74 13.19 13.19 0 0 0 2.31-.2 9.91 9.91 0 0 0 1.84-.51l.58 3.32a6.09 6.09 0 0 1 -.91.32 12.29 12.29 0 0 1 -1.28.29c-.47.08-1 .16-1.51.21s-1.07.08-1.61.08a10 10 0 0 1 -3.55-.58 6.91 6.91 0 0 1 -2.49-1.58 6.13 6.13 0 0 1 -1.47-2.36 9.11 9.11 0 0 1 -.47-3m10-1.57a3.66 3.66 0 0 0 -.18-1 2.58 2.58 0 0 0 -.49-.87 2.51 2.51 0 0 0 -.84-.63 2.76 2.76 0 0 0 -1.25-.25 2.91 2.91 0 0 0 -1.22.23 2.58 2.58 0 0 0 -.87.61 2.87 2.87 0 0 0 -.53.89 7.17 7.17 0 0 0 -.27 1z" fill="#fff"/><path d="m88.8 22.65a5.39 5.39 0 0 0 -.53-2.8 2 2 0 0 0 -1.82-.85 7.87 7.87 0 0 0 -.84 0c-.28 0-.56.06-.82.09v11.21h-4.29v-13.94l1.28-.29c.49-.09 1-.19 1.55-.27s1.11-.14 1.68-.19 1.14-.07 1.69-.07a7.5 7.5 0 0 1 2.65.39 5.86 5.86 0 0 1 1.68 1 7.42 7.42 0 0 1 2.12-1 7.61 7.61 0 0 1 2.19-.35 7.87 7.87 0 0 1 3 .48 4.49 4.49 0 0 1 1.84 1.36 5 5 0 0 1 1 2.08 13.62 13.62 0 0 1 .25 2.69v8.11h-4.34v-7.65a5.39 5.39 0 0 0 -.53-2.8 2 2 0 0 0 -1.83-.85 3.79 3.79 0 0 0 -1 .17 3.64 3.64 0 0 0 -1 .4 6.73 6.73 0 0 1 .27 1.37c0 .47.05 1 .05 1.49v7.87h-4.25z" fill="#fff"/><path d="m45.88 10.63v5.57a9.91 9.91 0 0 0 -1.42-.47 7.39 7.39 0 0 0 -1.59-.16 7.21 7.21 0 0 0 -2.85.52 5.63 5.63 0 0 0 -2.12 1.5 6.8 6.8 0 0 0 -1.31 2.41 10.26 10.26 0 0 0 -.47 3.16 8.79 8.79 0 0 0 .53 3.11 6.54 6.54 0 0 0 1.54 2.37 6.74 6.74 0 0 0 2.46 1.49 9.76 9.76 0 0 0 3.33.52q.78 0 1.63-.06c.56-.05 1.12-.1 1.66-.19s1.06-.16 1.56-.26a13.52 13.52 0 0 0 1.32-.31v-20.3zm0 16.4a6.47 6.47 0 0 1 -.8.09c-.33 0-.68 0-1.06 0a3.14 3.14 0 0 1 -2.65-1.12 4.89 4.89 0 0 1 -.89-3q0-4 3-4a5.09 5.09 0 0 1 1.3.17 3.94 3.94 0 0 1 1.05.4z" fill="#fff"/><g fill-rule="evenodd"><path d="m16.81 22.51c-.83 2.17-3.25 3.2-3.92 2.83-.34-.18 0-.87 0-1.34-.49.19-1.3.55-1.79.75a5 5 0 0 1 0 7.59c2 3 1 5.58-1.79 7.59l-.11.07-.06-.2a9.45 9.45 0 0 0 -1.92-3.77c-.49-.57-1.05-1.09-1.6-1.61-.72-.68-1.42-1.38-2.07-2.12-2.75-2.88-3.84-7.95-3.48-11.87a15.28 15.28 0 0 1 1.74-5.75 18.11 18.11 0 0 1 2.8-3.91 20.67 20.67 0 0 1 9.07-5.67 12.63 12.63 0 0 1 9.32.43 10.45 10.45 0 0 1 1.54 1l.71.67.08.08 13.37-6.85c1.1-.55 1.93-.55 2.3-.15s-.15 1.43-.93 2l-11.5 8.31a2.61 2.61 0 0 1 -.64 2.2c1.53.53.18 2.77-.49 3.57-1.92 2.27-5.43 4.05-8.56 5.35-.84.36-1.32.51-2.07.79m-7.48 3c-1.25.57-3.69 1.84-3.46 3.22.32.85 1.31 0 1.68-.4a7.24 7.24 0 0 0 1.78-2.77z" fill="#383c42"/><path d="m27.3 14.66c.86-1.08.26-1.7-.34-1.1a5.24 5.24 0 0 1 -4.57 1.36c-2.35-.39-2.46-.75-2.06-1.1a6.39 6.39 0 0 0 7.34-2.49c.58-.83-1.36-1.49-2.5-3-5.48-7.44-22.64-.99-24.28 11.94a14.46 14.46 0 0 0 3.27 11.23c2 2.27 4.18 3.22 5.41 6.79 2.4-2.06 2-4.39.27-6.43a4 4 0 0 0 .46-6.86c-1 3.61-4.51 6.28-5.33 3.72-.53-2.61 3.77-4.34 10.65-7 5.76-2.16 9.48-3.94 11.68-7.12" fill="#31d3db"/><path d="m27.3 14.66c.86-1.08.26-1.7-.34-1.1a5.18 5.18 0 0 1 -3.96 1.44c-2.37-.17-4.26-.64-6-.45a15.16 15.16 0 0 0 -8.52 4.32c-3 3.08-6.32 9.48-3 10.72a1.49 1.49 0 0 1 -.48-.86c-.53-2.61 3.77-4.34 10.65-7 5.76-2.16 9.48-3.94 11.68-7.12" fill="#fff"/><path d="m12.55 19.71c1.77.87 1.42 3.91 1.16 4.67 3.36-1 2.36-5.93 3.92-7.45-2-.06-5.62 1.91-5.08 2.78" fill="#31d3db"/><path d="m18.23 10.69a1 1 0 1 1 .92 1.72 1 1 0 0 1 -.92-1.72" fill="#383c42"/><path d="m26.39 11.1 13.49-9.39c.38-.27.88-.85.67-1.13s-.79-.13-1.29.1l-14.58 7.88c-.47 1 .48 3.05 1.72 2.54" fill="#31d3db"/><path d="m25.21 9.25 14.09-8.25a2.31 2.31 0 0 1 1.23-.4c-.21-.24-.79-.1-1.27.13l-14.58 7.83a2.22 2.22 0 0 0 .89 2.51 3.16 3.16 0 0 1 -.36-1.83" fill="#fff"/><path d="m4.45 12.93a.67.67 0 0 1 .81.71 1 1 0 0 1 -.84 1 .67.67 0 0 1 -.8-.7 1.06 1.06 0 0 1 .83-1" fill="#21aaad"/><path d="m7.18 9.92a.59.59 0 0 1 .71.63 1 1 0 0 1 -.74.89.59.59 0 0 1 -.71-.63 1 1 0 0 1 .74-.89" fill="#21aaad"/><path d="m15.46 5.93a.59.59 0 0 1 .54.77.94.94 0 0 1 -.91.69.6.6 0 0 1 -.56-.77.94.94 0 0 1 .92-.69" fill="#21aaad"/><path d="m18 5.52a.5.5 0 0 1 .37.71.8.8 0 0 1 -.85.45.5.5 0 0 1 -.37-.68.8.8 0 0 1 .85-.48" fill="#21aaad"/><path d="m7.21 11.81a.44.44 0 0 1 .53.47.68.68 0 0 1 -.55.65.44.44 0 0 1 -.53-.46.71.71 0 0 1 .55-.66" fill="#21aaad"/><path d="m2.95 15.35a.45.45 0 0 1 .55.48.72.72 0 0 1 -.57.68.47.47 0 0 1 -.56-.51.72.72 0 0 1 .58-.68" fill="#21aaad"/><path d="m38 1.34-.37.2a2 2 0 0 0 .67 1.13 3.32 3.32 0 0 1 -.3-1.33m-3.2 1.72-.42.23c0 .54.39 1.35.83 1.46a2.94 2.94 0 0 1 -.36-1.69zm-3.32 1.8-.55.3a2.54 2.54 0 0 0 1.13 1.84 4.36 4.36 0 0 1 -.53-2.14zm-3.31 1.82-.63.32a2.89 2.89 0 0 0 1.34 2.21 4.43 4.43 0 0 1 -.71-2.53z" fill="#21aaad"/></g></svg>