<svg height="40" viewBox="0 0 126 40" width="126" xmlns="http://www.w3.org/2000/svg"><g fill="none" fill-rule="evenodd" transform="translate(0 -1)"><g fill="#383c42"><path d="m109 12.88c.029608.6584975-.247327 1.2936021-.75 1.72-1.011456.8406747-2.478544.8406747-3.49 0-.503931-.425462-.78115-1.0612179-.75-1.72-.029693-.6613829.246975-1.2995645.75-1.73 1.015697-.828856 2.474303-.828856 3.49 0 .503025.4304355.779693 1.0686171.75 1.73" fill-rule="nonzero"/><path d="m104.38 17.22h4.18v14.09h-4.18z" fill-rule="nonzero"/><path d="m62.38 20.49c-.38-.09-.84-.19-1.34-.29-.550739-.1012409-1.1100919-.1481328-1.67-.14-.3341968.0011666-.6680613.0211984-1 .06-.2872322.0299978-.5715191.0835107-.85.16v11h-4.23v-13.64c.889381-.2897359 1.7940937-.5301024 2.71-.72 1.1444652-.2377067 2.3111679-.3516949 3.48-.34h.84c.33 0 .65.06 1 .1l1 .17c.2840382.051865.5621148.1322726.83.24l-.72 3.37" fill-rule="nonzero"/><path d="m126 24.06c.011032 1.0591897-.165003 2.1120112-.52 3.11-.323903.9033453-.835073 1.7280333-1.5 2.42-.658711.6751476-1.452748 1.2033692-2.33 1.55-.975594.376792-2.014259.5634802-3.06.55-1.025785.0080483-2.043784-.1785849-3-.55-.878677-.3438998-1.673257-.8724829-2.33-1.55-.667076-.6959407-1.18739-1.5189212-1.53-2.42-.367694-.9951845-.550691-2.0491151-.54-3.11-.016971-1.0599399.173257-2.1129892.56-3.1.680843-1.8090994 2.09333-3.2470038 3.89-3.96.953697-.3802402 1.973441-.5671933 3-.55 1.026363-.0148253 2.045647.1720435 3 .55 1.793006.7197475 3.188751 2.1774445 3.83 4 .378249.9891085.5649 2.0411393.55 3.1zm-4.35.04c.064366-1.0573789-.208764-2.1078776-.78-3-.516069-.7231579-1.362349-1.1368948-2.25-1.1-.891616-.0405144-1.744122.3688389-2.27 1.09-.584145.8871425-.864851 1.939792-.8 3-.05844 1.0595567.22174 2.1102301.8 3 .517719.7330697 1.373508 1.1515391 2.27 1.11.894596.0457102 1.749303-.3740796 2.26-1.11.566287-.9050215.835508-1.9644232.77-3.03z" fill-rule="nonzero"/><path d="m64 24.2c-.0251337-1.150602.1858766-2.2941419.62-3.36.7076765-1.7643088 2.1166843-3.1552059 3.89-3.84.8570496-.3215386 1.7646232-.4874756 2.68-.49 1.8806224-.1039165 3.7201076.5768378 5.08 1.88 1.3435656 1.5157345 2.0179088 3.5099152 1.87 5.53v.78c0 .28 0 .54-.07.76h-9.7c.0872201.8207057.5436822 1.5569349 1.24 2 .879724.5364256 1.9010636.7943749 2.93.74.7743781.0012721 1.5473639-.065653 2.31-.2.6283189-.1103802 1.2445116-.2811727 1.84-.51l.58 3.32c-.2943952.1305599-.5986828.2375621-.91.32-.421197.1193956-.8484727.2162003-1.28.29-.47.08-1 .16-1.51.21s-1.07.08-1.61.08c-1.2086635.022832-2.4114515-.1736799-3.55-.58-.9340225-.3413579-1.7833617-.880296-2.49-1.58-.6642909-.6636919-1.1672264-1.4711257-1.47-2.36-.3233997-.9666634-.482273-1.9807479-.47-3zm9.98-1.58c-.013214-.340081-.0737976-.6766569-.18-1-.1051224-.319141-.2715724-.6146746-.49-.87-.2324531-.2668722-.5187158-.4815692-.84-.63-.39145-.1797324-.8195337-.2653491-1.25-.25-.4184767-.0119838-.8346123.066468-1.22.23-.3291826.1407675-.625465.3485056-.87.61-.2291849.2620655-.4087761.5636432-.53.89-.1139912.326388-.2042266.6605932-.27 1z" fill-rule="nonzero"/><path d="m88.8 23.65c.0777296-.9639796-.1053356-1.9311164-.53-2.8-.4100686-.5895333-1.1047276-.9139619-1.82-.85-.2798004-.0149535-.5601996-.0149535-.84 0-.28 0-.56.06-.82.09v11.21h-4.29v-13.94l1.28-.29c.49-.09 1-.19 1.55-.27s1.11-.14 1.68-.19 1.14-.07 1.69-.07c.8995792-.0300676 1.7972251.1020388 2.65.39.6120469.2369048 1.1799491.5749418 1.68 1 .6492198-.4435526 1.3648135-.7810968 2.12-1 .7089919-.2229838 1.4468254-.3409024 2.19-.35 1.0216846-.0363723 2.0406686.1266651 3 .48.7204871.2868305 1.354403.7553771 1.84 1.36.490976.6058639.833431 1.3181709 1 2.08.172276.8861656.256021 1.787264.25 2.69v8.11h-4.34v-7.65c.0777296-.9639796-.1053356-1.9311164-.53-2.8-.4118995-.5928298-1.1113022-.9176889-1.83-.85-.3394449.0116029-.6757898.0687815-1 .17-.3513242.0830081-.6883459.2178168-1 .4.1372597.4460694.2277466.9052067.27 1.37 0 .47.05 1 .05 1.49v7.87h-4.25z" fill-rule="nonzero"/><path d="m45.88 11.63v5.57c-.4608174-.1922151-.9355025-.3493292-1.42-.47-.5226585-.1106492-1.0557747-.1642961-1.59-.16-.9753975-.0212775-1.9449669.1556264-2.85.52-.8139058.3279555-1.539885.8416201-2.12 1.5-.5958421.7060058-1.041576 1.52602-1.31 2.41-.3207052 1.0223307-.479294 2.0885872-.47 3.16-.0123376 1.0601465.1672205 2.1137802.53 3.11.3344491.8928061.8600551 1.7016933 1.54 2.37.7032478.6678727 1.5423489 1.1761086 2.46 1.49 1.071447.3651264 2.198244.5410827 3.33.52.52 0 1.0633333-.02 1.63-.06.56-.05 1.12-.1 1.66-.19s1.06-.16 1.56-.26c.4449079-.0811907.8854618-.1846541 1.32-.31v-20.3zm0 16.4c-.2645399.0465773-.5317236.0766355-.8.09h-1.06c-1.0124643.0770976-1.999715-.3401556-2.65-1.12-.617258-.875521-.9299414-1.9295099-.89-3 0-2.6666667 1-4 3-4 .4388499.000388.8758071.0575285 1.3.17.3673123.0824858.720907.2171885 1.05.4z" fill-rule="nonzero"/><path d="m16.81 23.51c-.83 2.17-3.25 3.2-3.92 2.83-.34-.18 0-.87 0-1.34-.49.19-1.3.55-1.79.75 1.1073324.9498995 1.7445469 2.336064 1.7445469 3.795s-.6372145 2.8451005-1.7445469 3.795c2 3 1 5.58-1.79 7.59l-.11.07-.06-.2c-.34685587-1.3856218-1.00330541-2.6745878-1.92-3.77-.49-.57-1.05-1.09-1.6-1.61-.72-.68-1.42-1.38-2.07-2.12-2.75-2.88-3.84-7.95-3.48-11.87.19379402-2.0129232.78522267-3.967357 1.74-5.75.75536142-1.4220137 1.69699524-2.7369381 2.8-3.91 2.4734684-2.65307857 5.6015412-4.60855515 9.07-5.67 3.0476833-1.05144032 6.3820793-.89760016 9.32.43.541681.2875008 1.0570032.62212557 1.54 1l.71.67.08.08 13.37-6.85c1.1-.55 1.93-.55 2.3-.15s-.15 1.43-.93 2l-11.5 8.31c.1371542.792779-.0989847 1.6045067-.64 2.2 1.53.53.18 2.77-.49 3.57-1.92 2.27-5.43 4.05-8.56 5.35-.84.36-1.32.51-2.07.79zm-7.48 2.99c-1.25.57-3.69 1.84-3.46 3.22.32.85 1.31 0 1.68-.4.7982023-.7743699 1.40728507-1.7222122 1.78-2.77z"/></g><path d="m27.3 15.66c.86-1.08.26-1.7-.34-1.1-1.2169085 1.1602869-2.9166956 1.6661317-4.57 1.36-2.35-.39-2.46-.75-2.06-1.1 2.7282288.9179801 5.7334509-.1015027 7.34-2.49.58-.83-1.36-1.49-2.5-3-5.48-7.44-22.64-.99-24.28 11.94-.54015191 4.0368025.64712827 8.1142204 3.27 11.23 2 2.27 4.18 3.22 5.41 6.79 2.4-2.06 2-4.39.27-6.43 1.2576853-.6383802 2.0862121-1.8919375 2.1805768-3.2992033.0943648-1.4072658-.5593814-2.7602175-1.7205768-3.5607967-1 3.61-4.51 6.28-5.33 3.72-.53-2.61 3.77-4.34 10.65-7 5.76-2.16 9.48-3.94 11.68-7.12" fill="#31d3db"/><path d="m27.3 15.66c.86-1.08.26-1.7-.34-1.1-1.0563161 1.0194494-2.4955859 1.5428202-3.96 1.44-2.37-.17-4.26-.64-6-.45-3.2313337.4842217-6.2197497 1.9994749-8.52 4.32-3 3.08-6.32 9.48-3 10.72-.25285641-.2239709-.42210729-.5272121-.48-.86-.53-2.61 3.77-4.34 10.65-7 5.76-2.16 9.48-3.94 11.68-7.12" fill="#fff"/><path d="m12.55 20.71c1.77.87 1.42 3.91 1.16 4.67 3.36-1 2.36-5.93 3.92-7.45-2-.06-5.62 1.91-5.08 2.78" fill="#31d3db"/><path d="m18.23 11.69c.3105437-.2690387.7540493-.3207448 1.118155-.1303603.3641057.1903846.5747029.5841098.5309523.99265-.0437505.4085402-.3329441.7487429-.7291073.8577103-.450444.1238977-.926649-.0805934-1.146992-.4925391-.2203431-.4119458-.1261012-.9215596.226992-1.2274609" fill="#383c42"/><path d="m26.39 12.1 13.49-9.39c.38-.27.88-.85.67-1.13s-.79-.13-1.29.1l-14.58 7.88c-.47 1 .48 3.05 1.72 2.54" fill="#31d3db"/><path d="m25.21 10.25 14.09-8.25c.363546-.24773768.7902754-.3865115 1.23-.4-.21-.24-.79-.1-1.27.13l-14.58 7.83c-.2938161.9414766.0687219 1.9639154.89 2.51-.3013819-.5598879-.4268479-1.1976734-.36-1.83" fill="#fff"/><path d="m4.45 13.93c.2075529-.0451058.42419962.0108724.58392289.1508767s.24360227.3474499.22607711.5591233c.00637602.4953928-.3509422.9207716-.84 1-.20422982.0408408-.41583819-.0156169-.57257986-.1527659-.15674167-.1371489-.24078934-.3393903-.22742014-.5472341.01592324-.483731.35747961-.8952447.83-1" fill="#21aaad"/><path d="m7.18 10.92c.18317136-.0388355.37390276.0115811.51395871.1358561.14005594.124275.21280737.307653.19604129.4941439-.0324677.4237798-.32926293.7807363-.74.89-.18317136.0388355-.37390276-.0115811-.51395871-.1358561-.14005594-.124275-.21280737-.307653-.19604129-.4941439.0324677-.4237798.32926293-.7807363.74-.89" fill="#21aaad"/><path d="m15.46 6.93c.1845524.00680595.3552711.09963386.4613086.25083552s.1351592.34333137.0786914.51916448c-.1128421.40901943-.4857039.69173879-.91.69-.1864955-.00477423-.3601595-.0960254-.4698868-.24690047-.1097274-.15087508-.143032-.34420578-.0901132-.52309953.1137955-.41264181.4920011-.69629603.92-.69" fill="#21aaad"/><path d="m18 6.52c.1554976.02542183.2899157.12265233.3627313.26237949.0728155.13972716.0755091.30560279.0072687.44762051-.151476.32258075-.4980629.50606795-.85.45-.1473997-.02790758-.2744797-.12052436-.3461805-.25229883s-.0804448-.28877998-.0238195-.42770117c.1415756-.33435314.4905693-.53143193.85-.48" fill="#21aaad"/><path d="m7.21 12.81c.13670932-.029162.2791419.0083704.38372735.101116s.15887918.2296686.14627265.368884c-.00820896.31884-.23691654.5891308-.55.65-.13486547.028506-.27529559-.0078389-.37939884-.0981926-.10410324-.0903538-.15984653-.2242726-.15060116-.3618074.01432763-.3185446.23926116-.5884648.55-.66" fill="#21aaad"/><path d="m2.95 16.35c.14085481-.0327586.28887071.0041727.39782645.0992614.10895574.0950886.16557366.2367468.15217355.3807386-.01116302.3307196-.24631279.6112492-.57.68-.14660956.0294571-.29848718-.0126107-.40904813-.1133001s-.16660866-.2479822-.15095187-.3966999c.01222405-.3337514.2523549-.6152842.58-.68" fill="#21aaad"/><path d="m38 2.34-.37.2c.0897272.44136228.3258021.83951855.67 1.13-.1909346-.41780473-.2930884-.87068632-.3-1.33zm-3.2 1.72-.42.23c0 .54.39 1.35.83 1.46-.2865713-.51455657-.4119892-1.10332404-.36-1.69zm-3.32 1.8-.55.3c.0842399.7508774.498405 1.42527002 1.13 1.84-.3570776-.65615069-.5395787-1.39304189-.53-2.14zm-3.31 1.82-.63.32c.0740338.9064797.5704678 1.72522522 1.34 2.21-.4870957-.75211749-.7346558-1.63426845-.71-2.53z" fill="#21aaad"/></g></svg>